<svg xmlns="http://www.w3.org/2000/svg" width="1000" height="1000"><path fill="#F2DA89" d="M506 414c12.73.367 25.399.758 38.05 2.267 7.05.816 14.098 1.143 21.188 1.391l2.543.096 2.252.072C572 418 572 418 575 419v11c-12.392.145-24.692-.293-37.062-1l-5.26-.29q-6.339-.347-12.678-.71l.481 3.343c.629 5.053.735 10.078.816 15.165l.06 3.098q.093 5.044.178 10.09l.13 7.061q.137 7.396.265 14.793.166 9.43.34 18.861.166 9.05.328 18.097l.062 3.44c.21 11.686.394 23.364.34 35.052h-12c-.725-10.963-1.156-21.927-1.465-32.91l-.057-2.048q-.15-5.335-.294-10.67-.31-11.32-.641-22.642l-.067-2.284c-.487-16.596-1.14-33.183-1.866-49.77l-.125-2.864q-.113-2.586-.231-5.171c-.216-4.886-.287-9.75-.254-14.641"/><path fill="#F3DB8A" d="M494 414q.04 4.688.063 9.375l.025 2.578c.02 5.59-.188 11.141-.533 16.719-.52 8.56-.787 17.123-1.02 25.695l-.057 2.107q-.15 5.45-.294 10.899c-.677 25.234-1.497 50.436-3.184 75.627h-11c-.109-25.817-.067-51.624.438-77.437l.059-3.152c.311-16.147.905-32.268 1.503-48.411l-54 2v-11c4.543-.909 8.836-1.251 13.438-1.437 7.21-.332 14.377-.87 21.562-1.563 10.953-1.05 21.989-2 33-2"/><path fill="#F5DD8B" d="M504 333h18c.105 12.236-.281 24.35-1 36.563l-.29 5.115q-.348 6.161-.71 12.322l2.25-.092c17.597-.702 35.137-1.04 52.75-.908v11a1272 1272 0 0 1-37.485 2.991q-2.046.132-4.092.268c-9.163.607-18.243.853-27.423.741-2.388-47.578-2.388-47.578-2-68m-26 0h18c.09 16.59.149 33.168-.437 49.75l-.12 3.49c-.196 5.016-.548 9.811-1.443 14.76-14.202.431-28.291-.876-42.437-2l-7.456-.578Q435.053 397.719 426 397v-11c12.197-.07 24.37.141 36.563.5l5.115.145q6.161.174 12.322.355l-.184-3.988q-.337-7.372-.67-14.744l-.292-6.363q-.21-4.59-.416-9.182l-.133-2.842-.121-2.728-.108-2.362c-.107-3.93-.076-7.86-.076-11.791"/></svg>